<?xml version="1.0" encoding="utf-8"?>
<!-- Generator: Adobe Illustrator 16.0.0, SVG Export Plug-In . SVG Version: 6.00 Build 0)  -->
<!DOCTYPE svg PUBLIC "-//W3C//DTD SVG 1.1//EN" "http://www.w3.org/Graphics/SVG/1.1/DTD/svg11.dtd">
<svg version="1.1" id="Layer_1" xmlns="http://www.w3.org/2000/svg" xmlns:xlink="http://www.w3.org/1999/xlink" x="0px" y="0px"
	 width="60px" height="50px" viewBox="0 0 60 50" enable-background="new 0 0 60 50" xml:space="preserve">
<path fill="#FF1B1B" d="M25.666,28.5c-2.596,0.581-4.981,1.867-6.893,3.717c-0.916,0.918-0.914,2.402,0.003,3.318
	c0.019,0.019,0.039,0.037,0.059,0.056c0.954,0.894,2.438,0.894,3.392,0c1.622-1.566,3.743-2.513,5.992-2.674L25.666,28.5z
	 M20.102,18.866c-3.612,1.275-6.904,3.32-9.649,5.992c-0.915,0.917-0.914,2.402,0.004,3.317c0.019,0.02,0.039,0.038,0.059,0.057
	c0.954,0.894,2.438,0.894,3.392,0c2.433-2.372,5.39-4.136,8.633-5.149L20.102,18.866z M14.175,8.602
	c-5.033,1.995-9.619,4.972-13.49,8.757c-0.916,0.917-0.914,2.402,0.003,3.318c0.019,0.019,0.039,0.038,0.059,0.056
	c0.954,0.893,2.438,0.893,3.392,0c3.563-3.475,7.81-6.17,12.471-7.915L14.175,8.602L14.175,8.602z M58.4,17.362
	C49.588,8.747,37.746,4.917,26.224,5.833l2.683,4.647c9.408-0.163,18.865,3.241,26.044,10.255c0.977,0.917,2.506,0.89,3.453-0.059
	C59.318,19.76,59.316,18.277,58.4,17.362L58.4,17.362z M28.924,39.771c-2.89,0-5.232,2.29-5.232,5.114S26.035,50,28.924,50
	c2.89,0,5.232-2.29,5.232-5.114S31.814,39.771,28.924,39.771z M32.998,17.566l3.268,5.658c3.086,1.03,5.898,2.743,8.229,5.011
	c0.979,0.916,2.508,0.891,3.455-0.059c0.912-0.917,0.912-2.398,0-3.315C43.873,20.894,38.633,18.337,32.998,17.566L32.998,17.566z
	 M20.289,1.461c-0.825-1.408-2.636-1.88-4.043-1.055c-1.395,0.817-1.874,2.604-1.074,4.009l23.635,40.937
	c0.826,1.408,2.635,1.88,4.043,1.055c1.395-0.817,1.873-2.604,1.074-4.009L20.289,1.461z"/>
</svg>
